<svg width="36" height="36" viewBox="0 0 36 36" fill="none" xmlns="http://www.w3.org/2000/svg">
<path d="M18.0015 3.00293C9.71851 3.00293 3.00301 9.71843 3.00301 18.0014C3.00301 25.4864 8.48701 31.6904 15.6585 32.8199V22.3379H11.8485V18.0014H15.6585V14.6969C15.6585 10.9349 17.898 8.86043 21.3225 8.86043C22.9635 8.86043 24.6825 9.15293 24.6825 9.15293V12.8414H22.7865C20.9265 12.8414 20.3445 13.9994 20.3445 15.1859V17.9984H24.501L23.8365 22.3349H20.3445V32.8169C27.516 31.6934 33 25.4879 33 18.0014C33 9.71843 26.2845 3.00293 18.0015 3.00293V3.00293Z" fill="white"/>
</svg>
