<?xml version="1.0" encoding="utf-8"?>
<!-- Generator: Adobe Illustrator 25.0.1, SVG Export Plug-In . SVG Version: 6.00 Build 0)  -->
<svg version="1.1" id="Layer_1" xmlns="http://www.w3.org/2000/svg" xmlns:xlink="http://www.w3.org/1999/xlink" x="0px" y="0px"
	 viewBox="0 0 24 23" style="enable-background:new 0 0 24 23;" xml:space="preserve">
<style type="text/css">
	.st0{fill:#59150E;}
</style>
<path class="st0" d="M0.4,8.6c1.1,2.5,2.6,4.7,4.4,6.7c2.5,2.9,5.6,5.1,9.1,6.7c1.8,0.8,4,0.4,5.5-1l2.5-2.5l-6-6l-2.7,2.7
	c-0.2,0.2-0.6,0.3-0.8,0.1c-3.4-1.9-4.3-3.5-5.2-5.2C6.9,9.9,7,9.5,7.2,9.3l2.7-2.7l-6-6L1.4,3.1C0,4.6-0.4,6.8,0.4,8.6z M15.9,14.5
	l4,4l-1,1l-4-4L15.9,14.5z M3.9,2.6l4,4l-1,1l-4-4L3.9,2.6z M6,8.6c-0.5,0.7-0.5,1.5-0.1,2.2c0.8,1.4,1.7,3.5,5.8,5.8
	c0.7,0.4,1.6,0.3,2.2-0.1l4,4c-1,0.7-2.3,0.8-3.4,0.3C7.3,17.6,3.6,12.1,1.7,8C1.2,6.9,1.3,5.6,2,4.6L6,8.6z"/>
<path class="st0" d="M7.7,1.4h1.4v1.4H7.7V1.4z"/>
<path class="st0" d="M10.5,1.4H12v1.4h-1.4V1.4z"/>
<path class="st0" d="M18.3,9.8h1.4v1.4h-1.4V9.8z"/>
<path class="st0" d="M22.6,6.3c0-2.5-1.9-4.5-4.3-4.9V0h-1.4v1.5c-2.4,0.3-4.3,2.4-4.3,4.9V7h-1.4v1.4H24V7h-1.4V6.3z M21.2,7h-7.1
	V6.3c0-1.9,1.6-3.5,3.6-3.5s3.6,1.6,3.6,3.5V7z"/>
<path class="st0" d="M18.3,12.7h1.4v1.4h-1.4V12.7z"/>
</svg>
