<?xml version="1.0" encoding="utf-8"?>
<!-- Generator: Adobe Illustrator 25.0.1, SVG Export Plug-In . SVG Version: 6.00 Build 0)  -->
<svg version="1.1" id="Capa_1" xmlns="http://www.w3.org/2000/svg" xmlns:xlink="http://www.w3.org/1999/xlink" x="0px" y="0px"
	 viewBox="0 0 512 512" style="enable-background:new 0 0 512 512;" xml:space="preserve">
<style type="text/css">
	.st0{fill:#98392F;}
</style>
<g>
	<g>
		<path class="st0" d="M469.5,317c7.1-8,11.5-18.5,11.5-30c0-24.8-20.2-45-45-45h-87.3c8.6-26.3,12.3-61.1,12.3-76v-15
			c0-33.1-26.9-60-60-60h-15c-6.9,0-12.9,4.7-14.5,11.4l-8.2,32.7c-11.4,45.8-47.8,96.3-85.4,105.5C171.3,223.8,155,212,136,212H46
			c-8.3,0-15,6.7-15,15v270c0,8.3,6.7,15,15,15h90c17.9,0,33.4-10.5,40.6-25.6l51.5,17.2c16.9,5.6,34.4,8.5,52.2,8.5H406
			c24.8,0,45-20.2,45-45c0-5.9-1.1-11.5-3.2-16.6c19.1-5.2,33.2-22.7,33.2-43.4c0-11.5-4.4-22-11.5-30c7.1-8,11.5-18.5,11.5-30
			S476.6,325,469.5,317z M151,467c0,8.3-6.7,15-15,15H61V242h75c8.3,0,15,6.7,15,15V467z M406,332h30c8.3,0,15,6.7,15,15
			s-6.7,15-15,15h-30c-8.3,0-15,6.7-15,15s6.7,15,15,15h30c8.3,0,15,6.7,15,15s-6.7,15-15,15h-30c-8.3,0-15,6.7-15,15s6.7,15,15,15
			c8.3,0,15,6.7,15,15s-6.7,15-15,15H280.3c-14.5,0-28.9-2.3-42.7-6.9L181,456.2V270.6c23.5-4.5,46.6-19.4,67.4-43.8
			c20.3-23.8,36.8-55.4,44-84.5l5.3-21.3h3.3c16.5,0,30,13.5,30,30v15c0,20.1-6.3,58.8-14.4,76H286c-8.3,0-15,6.7-15,15
			s6.7,15,15,15h150c8.3,0,15,6.7,15,15s-6.7,15-15,15h-30c-8.3,0-15,6.7-15,15S397.7,332,406,332z"/>
	</g>
</g>
<g>
	<g>
		<circle class="st0" cx="106" cy="437" r="15"/>
	</g>
</g>
<g>
	<g>
		<path class="st0" d="M316,0c-8.3,0-15,6.7-15,15v31c0,8.3,6.7,15,15,15s15-6.7,15-15V15C331,6.7,324.3,0,316,0z"/>
	</g>
</g>
<g>
	<g>
		<path class="st0" d="M252.4,66.1l-21.2-21.2c-5.9-5.9-15.4-5.9-21.2,0s-5.9,15.4,0,21.2l21.2,21.2c5.9,5.9,15.4,5.9,21.2,0
			C258.2,81.5,258.2,72,252.4,66.1z"/>
	</g>
</g>
<g>
	<g>
		<path class="st0" d="M422.1,44.9c-5.9-5.9-15.4-5.9-21.2,0l-21.2,21.2c-5.9,5.9-5.9,15.4,0,21.2c5.9,5.9,15.4,5.9,21.2,0
			l21.2-21.2C427.9,60.3,427.9,50.8,422.1,44.9z"/>
	</g>
</g>
</svg>
