<?xml version="1.0" encoding="utf-8"?>
<!-- Generator: Adobe Illustrator 25.0.1, SVG Export Plug-In . SVG Version: 6.00 Build 0)  -->
<svg version="1.1" id="Layer_1" xmlns="http://www.w3.org/2000/svg" xmlns:xlink="http://www.w3.org/1999/xlink" x="0px" y="0px"
	 viewBox="0 0 24 24" style="enable-background:new 0 0 24 24;" xml:space="preserve">
<style type="text/css">
	.st0{fill:#59150E;}
</style>
<path class="st0" d="M23.5,3.7c0-0.1-0.1-0.3-0.1-0.4l-3.1-3.1C20.1,0.1,20,0,19.8,0v0h-13C6.5,0,6.3,0.2,6.3,0.5v8.9l-0.6,0
	c-0.1,0-0.3,0.1-0.4,0.2l-4.6,4.7c-0.1,0.1-0.1,0.2-0.2,0.4v6.3c0,0.1,0.1,0.3,0.2,0.4l2,2c0.1,0.1,0.2,0.1,0.4,0.1h0
	c0.1,0,0.3-0.1,0.4-0.2l0.4-0.4c0.4,0.3,0.9,0.4,1.4,0.4h0c0.3,0,0.7-0.1,1-0.2v0.4c0,0.3,0.2,0.5,0.5,0.5H23c0.3,0,0.5-0.2,0.5-0.5
	L23.5,3.7L23.5,3.7z M20.3,1.8l1.3,1.3h-1.3V1.8z M5.8,16.2c-0.1,0-0.3,0.1-0.4,0.2l-1.1,1.1c-0.4,0.4-1,0.6-1.6,0.4l-0.3,1
	c0.9,0.3,1.9,0,2.6-0.7l1-1h0.3v4.6c-0.3,0.2-0.6,0.4-1,0.4c-0.4,0-0.8-0.2-1.1-0.4c-0.1-0.1-0.2-0.2-0.4-0.1
	c-0.1,0-0.3,0.1-0.4,0.2l-0.4,0.4l-1.5-1.5v-5.8l4.3-4.4l0.4,0v2.1c0,0.1,0,0.2,0.1,0.3l1.1,1.1c0.1,0.1,0.2,0.2,0.4,0.2H11v0.5
	c0,0.5-0.3,1-0.7,1.3c-0.3,0.2-0.6,0.3-0.9,0.3H5.8L5.8,16.2z M22.4,23H7.3v-5.7h2.1c1.4,0,2.6-1.2,2.6-2.6c0,0,0,0,0,0v-0.5
	c0-0.6-0.5-1-1-1H8l-0.7-0.7V1h12v2.1c0,0.6,0.5,1,1,1h2.1L22.4,23L22.4,23z"/>
<path class="st0" d="M9.4,3.1h-1v1h1V3.1z"/>
<path class="st0" d="M11.5,3.1h-1v1h1V3.1z"/>
<path class="st0" d="M20.3,6.3h-12v1h12V6.3z"/>
<path class="st0" d="M20.3,9.4h-12v1h12V9.4z"/>
<path class="st0" d="M17.7,3.1h-5.2v1h5.2V3.1z"/>
<path class="st0" d="M18.3,12.5h-4.2v1h4.2V12.5z"/>
<path class="st0" d="M20.3,12.5h-1v1h1V12.5z"/>
<path class="st0" d="M18.3,15.7h-4.2v1h4.2V15.7z"/>
<path class="st0" d="M20.3,15.7h-1v1h1V15.7z"/>
<path class="st0" d="M20.3,18.3h-12v1h12V18.3z"/>
</svg>
