<svg width="32" height="32" viewBox="0 0 32 32" fill="none" xmlns="http://www.w3.org/2000/svg">
<path d="M16 0.640137C7.5168 0.640137 0.639999 7.51694 0.639999 16.0001C0.639999 24.4833 7.5168 31.3601 16 31.3601C24.4832 31.3601 31.36 24.4833 31.36 16.0001C31.36 7.51694 24.4832 0.640137 16 0.640137ZM20.1232 22.6257C19.578 22.8947 19.0064 23.1065 18.4176 23.2577C17.8764 23.3808 17.323 23.4414 16.768 23.4385C16.096 23.4385 15.5024 23.3505 14.9856 23.1793C14.5003 23.0256 14.0508 22.7759 13.664 22.4449C13.3329 22.1738 13.0726 21.8262 12.9056 21.4321C12.7648 21.0721 12.6944 20.5537 12.6944 19.8753V14.6561H11.0688V12.5537C11.6432 12.3633 12.1408 12.0913 12.552 11.7345C12.9632 11.3809 13.2944 10.9569 13.5424 10.4593C13.792 9.96334 13.9632 9.32814 14.0576 8.56334H16.1488V12.3233H19.6368V14.6561H16.1488V18.4721C16.1488 19.3345 16.1936 19.8881 16.2848 20.1313C16.3777 20.3807 16.5564 20.5889 16.7888 20.7185C17.1152 20.9153 17.488 21.0145 17.904 21.0145C18.6496 21.0145 19.3888 20.7681 20.1248 20.2769V22.6257H20.1232Z" fill="white"/>
</svg>
