<svg width="32" height="32" viewBox="0 0 32 32" fill="none" xmlns="http://www.w3.org/2000/svg">
<path d="M16 0.640137C7.5168 0.640137 0.639997 7.51694 0.639997 16.0001C0.639997 24.4833 7.5168 31.3601 16 31.3601C24.4832 31.3601 31.36 24.4833 31.36 16.0001C31.36 7.51694 24.4832 0.640137 16 0.640137ZM22.248 13.2225C22.2544 13.3537 22.256 13.4849 22.256 13.6129C22.256 17.6129 19.2144 22.2225 13.6496 22.2225C12.0053 22.2253 10.3951 21.753 9.0128 20.8625C9.248 20.8913 9.4896 20.9025 9.7344 20.9025C11.152 20.9025 12.456 20.4209 13.4912 19.6081C12.8603 19.5957 12.2491 19.3869 11.7426 19.0106C11.2361 18.6343 10.8596 18.1093 10.6656 17.5089C11.1186 17.5951 11.5854 17.577 12.0304 17.4561C11.3457 17.3177 10.7299 16.9467 10.2875 16.406C9.84515 15.8653 9.60337 15.1883 9.6032 14.4897V14.4529C10.0112 14.6785 10.4784 14.8161 10.9744 14.8321C10.3325 14.4048 9.87805 13.7484 9.70407 12.9971C9.53008 12.2459 9.64968 11.4565 10.0384 10.7905C10.7983 11.7249 11.746 12.4893 12.8201 13.0342C13.8942 13.5791 15.0708 13.8924 16.2736 13.9537C16.1207 13.3046 16.1865 12.6232 16.4608 12.0153C16.7351 11.4075 17.2026 10.9073 17.7905 10.5926C18.3784 10.2778 19.0539 10.1661 19.7118 10.2748C20.3698 10.3835 20.9734 10.7066 21.4288 11.1937C22.1059 11.0598 22.7552 10.8114 23.3488 10.4593C23.1231 11.1604 22.6507 11.7556 22.0192 12.1345C22.619 12.0623 23.2046 11.9011 23.7568 11.6561C23.3512 12.264 22.8402 12.7944 22.248 13.2225V13.2225Z" fill="white"/>
</svg>
