<?xml version="1.0" encoding="utf-8"?>
<!-- Generator: Adobe Illustrator 25.0.1, SVG Export Plug-In . SVG Version: 6.00 Build 0)  -->
<svg version="1.1" id="Layer_1" xmlns="http://www.w3.org/2000/svg" xmlns:xlink="http://www.w3.org/1999/xlink" x="0px" y="0px"
	 viewBox="0 0 20 19" style="enable-background:new 0 0 20 19;" xml:space="preserve">
<style type="text/css">
	.st0{fill:none;stroke:#59150E;}
</style>
<path class="st0" d="M12.4,7.9L12,7.8L11.8,8l-1.5,1.5L10,9.9l0.4,0.4l6.5,6.5l-0.7,0.7l-6.5-6.5l-0.4-0.4l-0.4,0.4l-6.5,6.5
	l-0.7-0.7l9.4-9.4l0.2-0.2l-0.1-0.3c-0.6-1.3-0.2-3.2,1.3-4.7c0.9-0.9,2-1.4,2.9-1.5c1-0.1,1.9,0.1,2.5,0.7c0.6,0.6,0.9,1.5,0.7,2.5
	c-0.1,1-0.6,2.1-1.5,2.9C15.6,8.1,13.6,8.5,12.4,7.9z M1.2,1.1l6.3,6.3L5.4,9.5L1.5,5.7c0,0,0,0,0,0c-0.7-0.7-1-1.5-1-2.5
	C0.5,2.4,0.7,1.7,1.2,1.1z"/>
</svg>
